<?xml version="1.0" encoding="utf-8"?>
<!-- Generator: Adobe Illustrator 22.1.0, SVG Export Plug-In . SVG Version: 6.00 Build 0)  -->
<svg version="1.1" id="Layer_1" xmlns="http://www.w3.org/2000/svg" xmlns:xlink="http://www.w3.org/1999/xlink" x="0px" y="0px"
	 viewBox="0 0 199 178" style="enable-background:new 0 0 199 178;" xml:space="preserve">
<style type="text/css">
	.st0{fill:#AB182D;}
	.st1{fill:#D29E0D;}
</style>
<g id="zHpQtj_1_">
	
		<image style="overflow:visible;enable-background:new    ;" width="200" height="179" id="zHpQtj" xlink:href="8571756B81B8FFF0.png"  transform="matrix(0.9944 0 0 0.9944 5.865479e-02 -6.728313e-06)">
	</image>
</g>
<g>
	<g>
		<g>
			<rect x="83.6" y="77.8" class="st0" width="3.7" height="1.8"/>
			<rect x="88.6" y="77.8" class="st0" width="3.7" height="1.8"/>
			<rect x="93.7" y="77.8" class="st0" width="3.7" height="1.8"/>
			<rect x="98.8" y="77.8" class="st0" width="3.7" height="1.8"/>
			<rect x="103.9" y="77.8" class="st0" width="3.7" height="1.8"/>
			<rect x="108.9" y="77.8" class="st0" width="3.7" height="1.8"/>
			<rect x="114" y="77.8" class="st0" width="3.7" height="1.8"/>
		</g>
		<path class="st0" d="M100.7,58.5c-1.1,0-6.9,0-13.8,4.6L87,76.3h4.8v-8.2c0,0-0.1-1.9,1.8-3.8c2-2,4.3-2.7,7.1-2.8
			c2.8,0,5.1,0.8,7.1,2.8c1.9,1.9,1.8,3.8,1.8,3.8v8.2h4.8l0.1-13.2C107.7,58.5,101.8,58.5,100.7,58.5z"/>
		<path class="st0" d="M112.5,58.2c-1.4-1.9-6.2-4.9-11.7-4.9s-9.9,2.5-11.8,4.9c-1.5,1.8-1.7,3.6-1.7,3.6s2.3-1.6,6.3-3
			c3.3-1.2,6-1.2,7.2-1.2s3.9,0.1,7.2,1.2c4,1.4,6.3,3,6.3,3S114.1,60.4,112.5,58.2z"/>
	</g>
	<g>
		<polygon class="st1" points="37.8,103 39,103 40.8,94.5 40.2,91.8 		"/>
		<path class="st1" d="M66.7,88.4h3.1c0,0,0.5,0,1,0.1c-0.6-1.2-2.1-1.1-2.2-1.1h-2.8v9c0.2,0,0.5,0,0.9,0V88.4z"/>
		<rect x="21" y="84.2" class="st1" width="0.9" height="24.9"/>
		<polygon class="st1" points="43.6,107.7 36.8,107.7 35.5,113.8 31.8,113.8 31.5,114.8 36.5,114.8 37.8,108.6 43.8,108.6 		"/>
		<polygon class="st1" points="30,113.8 30,113.7 30,110.6 29.1,110.6 29.1,113.8 17.2,113.8 17.2,114.8 30,114.8 		"/>
		<polygon class="st1" points="43.6,84.2 43.1,84.2 50.5,113.8 46.1,113.8 46.3,114.8 51.3,114.8 43.7,84.4 		"/>
		<path class="st1" d="M124.9,88.4h3.1c0,0,0.5,0,1.1,0.3c-0.8-1.1-2.3-1.2-2.3-1.2h-2.7V109h0.9V88.4H124.9z"/>
		<polygon class="st1" points="172,103 173.2,103 175,94.5 174.4,91.8 		"/>
		<polygon class="st1" points="106.7,109.1 107.6,109.1 107.6,101.5 114.7,101.5 114.7,97.3 113.9,97.3 113.9,100.5 106.7,100.5 		
			"/>
		<path class="st1" d="M86.2,106.4c0,0.1-0.1,1.4,0.7,2.2c0.1,0.1,0.2,0.2,0.3,0.3c-0.2-0.6-0.1-1.1-0.1-1.2V84.2h-0.9V106.4z"/>
		<polygon class="st1" points="177.8,107.7 171,107.7 169.7,113.8 166,113.8 165.7,114.8 170.7,114.8 172,108.6 178,108.6 		"/>
		<rect x="149" y="87.3" class="st1" width="3.8" height="1"/>
		<path class="st1" d="M133.8,86.1c0.7,1.4,1,3,1,3.2c0.1,0.3,0.6,2.6,0.6,8.9c0,6.8-0.3,8.5-0.6,9.6c-0.3,1.3-1,3.1-2.1,4.1
			c-1.6,1.4-3,2-4.8,2h-7.6v1h8.8c1.7,0,3.1-0.6,4.6-2c1-0.9,1.7-2.7,2-3.9c0.2-1.1,0.5-2.8,0.6-9.5c0-6.4-0.5-8.6-0.5-8.8
			C135.7,90.3,135.2,87.6,133.8,86.1z"/>
		<polygon class="st1" points="144.4,113.8 140.7,113.8 140.7,114.8 145.3,114.8 145.3,84.2 144.4,84.2 		"/>
		<polygon class="st1" points="68.1,101.2 65.9,101.2 65.9,113.8 62.2,113.8 62.2,114.8 66.8,114.8 66.8,102.2 68.4,102.2 		"/>
		<polygon class="st1" points="177.9,84.4 177.8,84.2 177.3,84.2 184.7,113.8 180.3,113.8 180.5,114.8 185.5,114.8 		"/>
		<polygon class="st1" points="164.2,84.2 163.3,84.2 163.3,87.3 158,87.3 158,113.8 154.3,113.8 154.3,114.8 158.9,114.8 
			158.9,88.3 164.2,88.3 		"/>
		<polygon class="st1" points="115,87.4 106.7,87.4 106.7,95.7 107.6,95.7 107.6,88.3 115.9,88.3 115.9,84.2 115,84.2 		"/>
		<path class="st1" d="M77,97.6c1-3.5,0.4-7.2,0.3-7.4c0-0.1-0.4-2.7-1.7-4.2c0.7,1.4,0.9,2.8,0.9,2.9s0.7,3.9-0.4,7.5
			c-0.5,1.7-1.6,3-3,3.7l4.8,13.7h-4.8l0.3,1h5.2L74,101.2C75.4,100.6,76.6,99.3,77,97.6z"/>
		<path class="st1" d="M96.9,106.6c0,1-0.3,3.4-2.1,5.4c-0.9,1-2.6,2.1-5.3,2.3l0,0h-0.6h-0.7l0,0c-1.6-0.1-2.8-0.6-3.8-1.1
			c1,0.9,2.6,2,5.3,2.1H90h0.3l0,0c2.8-0.1,4.4-1.2,5.4-2.2c1.8-1.9,2-4.2,2.1-5.2V84.2h-0.9L96.9,106.6z"/>
		<polygon class="st1" points="115,113.8 103,113.8 103,114.8 115.9,114.8 115.9,110.6 115,110.6 		"/>
	</g>
	<g>
		<rect x="139.8" y="83.2" class="st0" width="4.1" height="30"/>
		<polygon class="st0" points="114.4,86.8 114.4,83.2 102.1,83.2 102.1,113.2 114.4,113.2 114.4,109.6 106.2,109.6 106.2,99.9 
			113.3,99.9 113.3,96.3 106.2,96.3 106.2,86.8 		"/>
		<path class="st0" d="M72.5,99.8c1.3-0.4,2.6-1.6,3.1-3.5c1-3.5,0.3-7.2,0.3-7.2s-0.4-2.9-1.9-4.3s-3.5-1.6-4.3-1.6
			c-0.7,0-8.5,0-8.5,0v30h4.1v-12.6h3.2l4.1,12.6h4.6L72.5,99.8z M71.7,94.5c-0.1,0.7-1.2,2.4-2.6,2.4s-3.8,0-3.8,0V86.8h3.4
			c0,0,2.4-0.2,3,2.1C72.2,91.2,71.9,93.9,71.7,94.5z"/>
		<polygon class="st0" points="20.4,109.7 20.4,83.2 16.4,83.2 16.4,113.2 19,113.2 20.4,113.2 28.5,113.2 28.5,109.7 		"/>
		<polygon class="st0" points="162.7,83.2 148.1,83.2 148.1,86.7 153.4,86.7 153.4,113.2 157.4,113.2 157.4,86.7 162.7,86.7 		"/>
		<path class="st0" d="M45.4,113.2h4.3l-7.5-30h-0.1H38l-7.5,30h4.3l1.3-6.1h7.7L45.4,113.2z M37.1,103.6L40.2,89l3.1,14.6H37.1z"/>
		<path class="st0" d="M179.6,113.2h4.3l-7.5-30h-0.1h-4.1l-7.5,30h4.3l1.3-6.1h7.7L179.6,113.2z M171.3,103.6l3.1-14.6l3.1,14.6
			H171.3z"/>
		<path class="st0" d="M134.3,89.4c0,0-0.6-3.2-2.1-4.6s-3.5-1.6-4.3-1.6c-0.7,0-8.5,0-8.5,0v30c0,0,7.8,0,8.5,0
			c1.6,0,2.9-0.5,4.4-1.9c1-0.9,1.7-2.7,1.9-3.8c0.2-1.1,0.5-2.8,0.6-9.5C134.9,91.5,134.3,89.4,134.3,89.4z M126.8,109.6h-3.4V86.8
			h3.4c0,0,2.6,0.2,3.2,2.5c0.6,2.1,0.6,6.1,0.6,6.1s0.1,4,0,7.3c-0.1,3.4-0.8,4.8-0.8,4.8C129.2,109.8,126.8,109.6,126.8,109.6z"/>
		<path class="st0" d="M92,83.2v23.2c0,0,0.1,1.6-0.8,2.6c-0.5,0.5-1.1,0.9-2.4,0.9c-1.2,0-1.8-0.4-2.3-0.9c-1-1-0.8-2.6-0.8-2.6
			V83.2h-4.3v23.4c0,0.9,0.3,3.2,2,5c0.9,1,2.6,2.1,5.5,2.1l0,0l0,0l0,0l0,0c2.8,0,4.5-1.2,5.5-2.1c1.7-1.8,2-4.1,2-5V83.2H92z"/>
	</g>
	<path class="st1" d="M97.4,76.1c0,0-0.6-0.8-0.7-3.2c-0.1-2.4,1.3-4.1,1.8-4.7c0.5-0.7,1.4-2,1.6-2.5c0,0,0.7,0.7,1.1,1.1
		s1.9,1.9,2.4,3.3s0.5,2.6,0.3,3.4c0,0,0.4-0.1,0.6-0.5s0.2-0.5,0.2-0.5s0.4,0.4,0.6,1s0.5,1.4,0.1,2.6h-0.9c0,0,0.5-0.7,0.1-1.1
		c0,0-0.3,0.8-1.2,1.2h-1.7c0,0,0.4-0.8,0.4-1.7c0-0.9-0.1-1.6-0.6-2.6s-1.1-1.7-1.1-1.7S99,71.6,98.7,73c-0.3,1.5,0,2.2,0.6,3.1
		H97.4z"/>
	<g>
		<path class="st1" d="M42.8,77.2c0,0-1.4,0.9-3.1,0c-1.7-1-2.3-2.1-2.6-4.7s0.9-6.2,1.5-7.3c0,0,0.2,0.8,1,1.7
			c0.8,0.8,2.2,2.1,3.4,3s2.1,1.8,2.3,2.9s0,2.6-1.1,3.6c0,0-2-1.3-3.1-3s-1.7-3.7-2-5.1c0,0-0.2,1.3,1.1,4.6
			C41.4,76.2,42.8,77.2,42.8,77.2z"/>
		<path class="st1" d="M50.4,69.5c-0.4-1.4-0.9-2-0.9-2s-0.1,0.6-0.4,1.1c-0.3,0.5-1.7,1.7-2.8,2.5c-0.4,0.3-0.7,0.6-0.9,0.9
			c0.1,0.2,0.2,0.5,0.2,0.7c0.2,1,0,2.3-0.7,3.3c0.2,0.3,0.4,0.4,0.4,0.4c1-0.6,1.6-1.4,1.6-1.4c1.6-1.9,2.4-4.5,2.4-4.5
			c-0.1,1.3-0.5,2.6-1.2,4.1C47.3,76,46.2,77,46.2,77c2,0.3,3.3-0.4,4.1-1.8C51.2,73.7,50.9,70.9,50.4,69.5z"/>
	</g>
	<g>
		<path class="st1" d="M159.7,77.2c0,0,1.4,0.9,3.1,0c1.7-1,2.3-2.1,2.6-4.7s-0.9-6.2-1.5-7.3c0,0-0.2,0.8-1,1.7s-2.2,2.1-3.4,3
			s-2.1,1.8-2.3,2.9s0,2.6,1.1,3.6c0,0,2-1.3,3.1-3s1.7-3.7,2-5.1c0,0,0.2,1.3-1.1,4.6S159.7,77.2,159.7,77.2z"/>
		<path class="st1" d="M152.1,69.5c0.4-1.4,0.9-2,0.9-2s0.1,0.6,0.4,1.1c0.3,0.5,1.7,1.7,2.8,2.5c0.4,0.3,0.7,0.6,0.9,0.9
			c-0.1,0.2-0.2,0.5-0.2,0.7c-0.2,1,0,2.3,0.7,3.3c-0.2,0.3-0.4,0.4-0.4,0.4c-1-0.6-1.6-1.4-1.6-1.4c-1.6-1.9-2.4-4.5-2.4-4.5
			c0.1,1.3,0.5,2.6,1.2,4.1s1.8,2.5,1.8,2.5c-2,0.3-3.3-0.4-4.1-1.8C151.4,73.7,151.7,70.9,152.1,69.5z"/>
	</g>
	<g>
		<path class="st1" d="M62.8,66c-0.2-0.1-0.5-0.1-0.7,0.2c-0.1,0.2-0.1,0.5,0.2,0.7l1.8,1c0.2-0.3,0.3-0.6,0.5-0.8L62.8,66z"/>
		<path class="st1" d="M77.7,50.9c-0.1-0.2-0.4-0.3-0.7-0.2c-0.2,0.1-0.3,0.4-0.2,0.7l1.1,1.8c0.3-0.2,0.5-0.4,0.8-0.5L77.7,50.9z"
			/>
		<path class="st1" d="M105.5,47.1l0.2-2.1c0-0.3-0.2-0.5-0.4-0.5c-0.3,0-0.5,0.2-0.5,0.4l-0.2,2.1C104.9,47,105.2,47.1,105.5,47.1z
			"/>
		<path class="st1" d="M100.5,46.8c0.1,0,0.2,0,0.3,0v-9c0-0.3-0.2-0.5-0.5-0.5s-0.5,0.2-0.5,0.5v9C100,46.8,100.2,46.8,100.5,46.8z
			"/>
		<path class="st1" d="M69.4,57.4c-0.2-0.2-0.5-0.2-0.7,0s-0.2,0.5,0,0.7l1.5,1.5c0.2-0.2,0.4-0.5,0.7-0.7L69.4,57.4z"/>
		<path class="st1" d="M84.4,50c0.3-0.1,0.6-0.2,0.9-0.4l-0.8-2c-0.1-0.2-0.4-0.4-0.6-0.3c-0.2,0.1-0.4,0.4-0.3,0.6L84.4,50z"/>
		<path class="st1" d="M89.5,48.3c0.3-0.1,0.6-0.2,0.9-0.2l-2.2-8.7c-0.1-0.3-0.3-0.4-0.6-0.4c-0.3,0.1-0.4,0.3-0.4,0.6L89.5,48.3z"
			/>
		<path class="st1" d="M95.4,47.1L95.1,45c0-0.3-0.3-0.5-0.5-0.4c-0.3,0-0.5,0.3-0.4,0.5l0.3,2.2C94.7,47.2,95,47.2,95.4,47.1z"/>
		<path class="st1" d="M132.6,59l-1.3,1.2c0.2,0.2,0.4,0.5,0.6,0.7l1.3-1.2c0.2-0.2,0.2-0.5,0-0.7C133.1,58.8,132.8,58.8,132.6,59z"
			/>
		<path class="st1" d="M125,124.1c0.1,0.1,0.3,0.2,0.4,0.2s0.2,0,0.3-0.1c0.2-0.1,0.3-0.4,0.2-0.7l-1.3-2.1
			c-0.3,0.2-0.6,0.3-0.8,0.5L125,124.1z"/>
		<path class="st1" d="M138.6,67.5l-1.5,0.8c0.2,0.3,0.3,0.6,0.4,0.9l1.5-0.8c0.2-0.1,0.3-0.4,0.2-0.7
			C139.1,67.5,138.9,67.4,138.6,67.5z"/>
		<path class="st1" d="M110.6,48l2.1-8.6c0.1-0.3-0.1-0.5-0.4-0.6s-0.5,0.1-0.6,0.4l-2.1,8.7C110,47.9,110.3,48,110.6,48z"/>
		<path class="st1" d="M135,64.8l7-4.9c0.2-0.2,0.3-0.5,0.1-0.7s-0.5-0.3-0.7-0.1l-7,4.9C134.6,64.2,134.8,64.5,135,64.8z"/>
		<path class="st1" d="M120.1,51.6l4.1-7.8c0.1-0.2,0-0.5-0.2-0.7c-0.2-0.1-0.5,0-0.7,0.2l-4.1,7.8
			C119.5,51.3,119.8,51.5,120.1,51.6z"/>
		<path class="st1" d="M115.3,49.5l0.7-1.9c0.1-0.3,0-0.5-0.3-0.6s-0.5,0-0.6,0.3l-0.7,1.9C114.7,49.3,115,49.4,115.3,49.5z"/>
		<path class="st1" d="M128.4,57.3l5.7-6.5c0.2-0.2,0.2-0.5,0-0.7s-0.5-0.2-0.7,0l-5.8,6.5C127.9,56.9,128.1,57.1,128.4,57.3z"/>
		<path class="st1" d="M124.4,54.3l1.1-1.6c0.2-0.2,0.1-0.5-0.1-0.7s-0.5-0.1-0.7,0.1l-1.1,1.6C123.9,53.9,124.2,54.1,124.4,54.3z"
			/>
		<path class="st1" d="M120.1,124.1c-0.3,0.2-0.6,0.3-0.9,0.4l4.6,8.5c0.1,0.2,0.3,0.3,0.4,0.3s0.2,0,0.2-0.1
			c0.2-0.1,0.3-0.4,0.2-0.7L120.1,124.1z"/>
		<path class="st1" d="M110.8,127.6c-0.3,0.1-0.6,0.1-0.9,0.2l2.4,9.5c0.1,0.2,0.3,0.4,0.5,0.4h0.1c0.3-0.1,0.4-0.3,0.4-0.6
			L110.8,127.6z"/>
		<path class="st1" d="M115.9,126c-0.3,0.1-0.6,0.2-0.9,0.4l1,2.5c0.1,0.2,0.3,0.3,0.5,0.3c0.1,0,0.1,0,0.2,0
			c0.2-0.1,0.4-0.4,0.3-0.6L115.9,126z"/>
		<path class="st1" d="M100.5,128.9c-0.2,0-0.5,0-0.7,0v9.9c0,0.3,0.2,0.5,0.5,0.5s0.5-0.2,0.5-0.5v-9.9
			C100.7,128.9,100.6,128.9,100.5,128.9z"/>
		<path class="st1" d="M105.1,128.7l0.4,2.8c0,0.2,0.2,0.4,0.5,0.4c0,0,0,0,0.1,0c0.3,0,0.5-0.3,0.4-0.5l-0.4-2.8
			C105.7,128.6,105.4,128.6,105.1,128.7z"/>
		<path class="st1" d="M128.2,118.5c-0.2,0.2-0.5,0.4-0.7,0.6l6.3,7c0.1,0.1,0.2,0.2,0.4,0.2c0.1,0,0.2,0,0.3-0.1
			c0.2-0.2,0.2-0.5,0-0.7L128.2,118.5z"/>
		<path class="st1" d="M148,70.3c-0.1-0.3-0.4-0.4-0.6-0.3l-8,3c0.1,0.3,0.2,0.6,0.4,0.9l8-3C147.9,70.8,148.1,70.5,148,70.3z"/>
		<path class="st1" d="M95.1,128.6l-0.3,2.8c0,0.3,0.2,0.5,0.4,0.5c0,0,0,0,0.1,0c0.2,0,0.5-0.2,0.5-0.4l0.3-2.8
			C95.8,128.7,95.4,128.6,95.1,128.6z"/>
		<path class="st1" d="M90.2,127.7l-2.4,9.6c-0.1,0.3,0.1,0.5,0.4,0.6h0.1c0.2,0,0.4-0.1,0.5-0.4l2.4-9.6
			C90.8,127.8,90.5,127.7,90.2,127.7z"/>
		<path class="st1" d="M74,56.2c0.3-0.2,0.5-0.4,0.8-0.6l-5.6-7c-0.2-0.2-0.5-0.2-0.7-0.1c-0.2,0.2-0.2,0.5-0.1,0.7L74,56.2z"/>
		<path class="st1" d="M66.9,63.5c0.2-0.3,0.4-0.5,0.6-0.8l-7.1-5.4c-0.2-0.2-0.5-0.1-0.7,0.1c-0.2,0.2-0.1,0.5,0.1,0.7L66.9,63.5z"
			/>
		<path class="st1" d="M53.6,68.9l8.2,3.5c0.1-0.3,0.2-0.6,0.4-0.9L54,68c-0.2-0.1-0.5,0-0.6,0.3C53.3,68.6,53.4,68.8,53.6,68.9z"/>
		<path class="st1" d="M72.4,118.2l-6.5,7.1c-0.2,0.2-0.2,0.5,0,0.7c0.1,0.1,0.2,0.1,0.3,0.1c0.1,0,0.3-0.1,0.4-0.2l6.5-7.2
			C72.9,118.6,72.6,118.4,72.4,118.2z"/>
		<path class="st1" d="M85.5,126.2l-1,2.6c-0.1,0.3,0,0.5,0.3,0.6c0.1,0,0.1,0,0.2,0c0.2,0,0.4-0.1,0.5-0.3l1-2.6
			C86.1,126.4,85.8,126.3,85.5,126.2z"/>
		<path class="st1" d="M80.7,124l-4.6,8.7c-0.1,0.2,0,0.5,0.2,0.7c0.1,0,0.1,0.1,0.2,0.1c0.2,0,0.3-0.1,0.4-0.3l4.6-8.7
			C81.3,124.3,81,124.2,80.7,124z"/>
		<path class="st1" d="M76.6,121.5l-1.5,2.2c-0.2,0.2-0.1,0.5,0.1,0.7c0.1,0.1,0.2,0.1,0.3,0.1c0.2,0,0.3-0.1,0.4-0.2l1.5-2.2
			C77.1,121.9,76.8,121.7,76.6,121.5z"/>
	</g>
	<g>
		<path class="st1" d="M67.6,151.8l0.3-0.6c-0.7-0.4-1.4-0.7-2-1.1l-0.3,0.6C66.3,151.1,66.9,151.5,67.6,151.8z"/>
		<path class="st1" d="M48.3,137.1l0.5-0.5c-0.5-0.6-1-1.1-1.5-1.7l-0.5,0.4C47.2,135.9,47.7,136.5,48.3,137.1z"/>
		<path class="st1" d="M60.6,147.7l0.4-0.6c-0.6-0.4-1.3-0.9-1.9-1.3l-0.4,0.5C59.3,146.8,60,147.2,60.6,147.7z"/>
		<path class="st1" d="M75.1,155.2l0.2-0.6c-0.7-0.3-1.4-0.6-2.1-0.9l-0.3,0.6C73.6,154.6,74.3,154.9,75.1,155.2z"/>
		<path class="st1" d="M90.8,159.3l0.1-0.7c-0.8-0.1-1.5-0.2-2.3-0.4l-0.1,0.7C89.3,159,90,159.2,90.8,159.3z"/>
		<path class="st1" d="M82.8,157.7L83,157c-0.7-0.2-1.5-0.4-2.2-0.6l-0.2,0.7C81.3,157.3,82.1,157.5,82.8,157.7z"/>
		<path class="st1" d="M32.9,66.6c-0.2,0.7-0.5,1.5-0.7,2.2l0.7,0.2c0.2-0.7,0.4-1.5,0.7-2.2L32.9,66.6z"/>
		<path class="st1" d="M35.9,59c-0.3,0.7-0.6,1.4-1,2.1l0.6,0.3c0.3-0.7,0.6-1.4,0.9-2.1L35.9,59z"/>
		<path class="st1" d="M43.1,130.8l0.5-0.4c-0.5-0.6-0.9-1.2-1.3-1.9l-0.6,0.4C42.2,129.5,42.6,130.2,43.1,130.8z"/>
		<path class="st1" d="M39.7,51.8c-0.4,0.7-0.8,1.3-1.2,2l0.6,0.3c0.4-0.7,0.8-1.3,1.2-2L39.7,51.8z"/>
		<path class="st1" d="M30.7,74.5c-0.1,0.5-0.2,1.1-0.3,1.6h0.7c0.1-0.5,0.2-1,0.3-1.5L30.7,74.5z"/>
		<path class="st1" d="M38.6,124l0.6-0.3c-0.4-0.7-0.8-1.3-1.1-2l-0.6,0.3C37.9,122.6,38.2,123.3,38.6,124z"/>
		<path class="st1" d="M154.8,135.7c0.5-0.6,1-1.2,1.5-1.8l-0.5-0.4c-0.5,0.6-1,1.2-1.5,1.8L154.8,135.7z"/>
		<path class="st1" d="M142.7,146.6c0.6-0.5,1.3-0.9,1.9-1.4l-0.4-0.5c-0.6,0.5-1.2,0.9-1.9,1.4L142.7,146.6z"/>
		<path class="st1" d="M149.1,141.5c0.6-0.5,1.1-1,1.7-1.6l-0.5-0.5c-0.6,0.5-1.1,1.1-1.7,1.6L149.1,141.5z"/>
		<path class="st1" d="M159.8,129.3c0.4-0.6,0.9-1.3,1.3-1.9l-0.6-0.4c-0.4,0.6-0.9,1.3-1.3,1.9L159.8,129.3z"/>
		<path class="st1" d="M163.5,122.1l0.6,0.3c0.4-0.7,0.7-1.4,1.1-2.1l-0.6-0.3h-0.1C164.2,120.7,163.9,121.4,163.5,122.1z"/>
		<path class="st1" d="M112.9,159c0.8-0.1,1.5-0.3,2.3-0.4l-0.1-0.7c-0.8,0.2-1.5,0.3-2.3,0.4L112.9,159z"/>
		<path class="st1" d="M135.8,151c0.7-0.4,1.4-0.8,2-1.2l-0.3-0.6c-0.7,0.4-1.3,0.8-2,1.2L135.8,151z"/>
		<path class="st1" d="M98.9,160v-0.7c-0.8,0-1.5-0.1-2.3-0.1v0.7C97.4,159.9,98.2,159.9,98.9,160z"/>
		<path class="st1" d="M104.8,159.9c0.8,0,1.6-0.1,2.3-0.2L107,159c-0.8,0.1-1.5,0.1-2.3,0.2L104.8,159.9z"/>
		<path class="st1" d="M128.5,154.5c0.7-0.3,1.4-0.6,2.1-0.9l-0.3-0.6c-0.7,0.3-1.4,0.6-2.1,0.9L128.5,154.5z"/>
		<path class="st1" d="M120.8,157.2c0.7-0.2,1.5-0.4,2.2-0.7l-0.2-0.6c-0.7,0.2-1.5,0.5-2.2,0.7L120.8,157.2z"/>
		<path class="st1" d="M54.1,142.7l0.4-0.5c-0.6-0.5-1.2-1-1.7-1.5l-0.5,0.5C53,141.7,53.6,142.2,54.1,142.7z"/>
		<path class="st1" d="M150.7,37.6l-0.5,0.5c0.6,0.5,1.1,1.1,1.6,1.6l0.5-0.5C151.8,38.7,151.3,38.2,150.7,37.6z"/>
		<path class="st1" d="M156.2,43.6l-0.5,0.4c0.5,0.6,1,1.2,1.4,1.8l0.5-0.4C157.2,44.8,156.7,44.2,156.2,43.6z"/>
		<path class="st1" d="M137.7,27.8l-0.3,0.6c0.7,0.4,1.3,0.8,2,1.2l0.4-0.6C139.1,28.6,138.4,28.2,137.7,27.8z"/>
		<path class="st1" d="M161.1,50.2l-0.6,0.4c0.4,0.6,0.8,1.3,1.2,1.9l0.6-0.4C161.9,51.5,161.5,50.8,161.1,50.2z"/>
		<path class="st1" d="M144.5,32.3l-0.4,0.5c0.6,0.5,1.2,0.9,1.8,1.4l0.4-0.5C145.7,33.3,145.1,32.8,144.5,32.3z"/>
		<path class="st1" d="M170.7,72.5l-0.7,0.2c0.2,0.7,0.3,1.5,0.5,2.3l0.7-0.1C171,74,170.9,73.3,170.7,72.5z"/>
		<path class="st1" d="M165.1,57.2l-0.6,0.3c0.3,0.7,0.7,1.4,1,2.1l0.6-0.3C165.8,58.6,165.5,57.9,165.1,57.2z"/>
		<path class="st1" d="M27.8,76.1c6.1-34.6,36.6-60.9,73.1-60.9s67,26.4,73.1,60.9h1.2C169.1,40.9,138.1,14,100.9,14
			S32.8,40.8,26.6,76.1H27.8z"/>
		<path class="st1" d="M168.2,120c-11.9,25.1-37.5,42.5-67.2,42.5S45.6,145.1,33.8,120h-1.3c11.9,25.8,38.2,43.7,68.5,43.7
			s56.6-17.9,68.5-43.7H168.2z"/>
		<path class="st1" d="M130.5,24l-0.3,0.6c0.7,0.3,1.4,0.6,2.1,1l0.3-0.6C131.9,24.7,131.2,24.3,130.5,24z"/>
		<path class="st1" d="M168.4,64.7l-0.6,0.2c0.3,0.7,0.5,1.4,0.8,2.2l0.6-0.2C168.9,66.2,168.6,65.4,168.4,64.7z"/>
		<path class="st1" d="M62.5,28.8c-0.7,0.4-1.3,0.8-1.9,1.3l0.4,0.6c0.6-0.4,1.3-0.9,1.9-1.3L62.5,28.8z"/>
		<path class="st1" d="M44.4,45.1c-0.5,0.6-0.9,1.2-1.4,1.9l0.5,0.4c0.5-0.6,0.9-1.2,1.4-1.8L44.4,45.1z"/>
		<path class="st1" d="M77.1,21.7c-0.7,0.3-1.5,0.5-2.2,0.8l0.2,0.6c0.7-0.3,1.4-0.5,2.2-0.8L77.1,21.7z"/>
		<path class="st1" d="M122.9,21.1l-0.2,0.6c0.7,0.2,1.5,0.5,2.2,0.7l0.2-0.6C124.4,21.6,123.6,21.3,122.9,21.1z"/>
		<path class="st1" d="M55.8,33.5c-0.6,0.5-1.2,1-1.8,1.5l0.4,0.5c0.6-0.5,1.2-1,1.8-1.5L55.8,33.5z"/>
		<path class="st1" d="M49.8,39c-0.5,0.6-1.1,1.1-1.6,1.7l0.5,0.5c0.5-0.6,1.1-1.1,1.6-1.7L49.8,39z"/>
		<path class="st1" d="M69.6,24.8c-0.7,0.3-1.4,0.7-2.1,1l0.3,0.6c0.7-0.4,1.4-0.7,2.1-1L69.6,24.8z"/>
		<path class="st1" d="M84.9,19.5c-0.8,0.2-1.5,0.4-2.3,0.6l0.2,0.7c0.7-0.2,1.5-0.4,2.2-0.5L84.9,19.5z"/>
		<path class="st1" d="M106.9,17.9l-0.1,0.7c0.8,0.1,1.5,0.1,2.3,0.2l0.1-0.7C108.5,18.1,107.7,18,106.9,17.9z"/>
		<path class="st1" d="M115,19.1l-0.1,0.7c0.8,0.1,1.5,0.3,2.3,0.5l0.2-0.7C116.5,19.4,115.8,19.2,115,19.1z"/>
		<path class="st1" d="M93,18.1c-0.8,0.1-1.5,0.2-2.3,0.3l0.1,0.7c0.8-0.1,1.5-0.2,2.3-0.3L93,18.1z"/>
		<path class="st1" d="M101.1,18.4v-0.7h-0.2c-0.7,0-1.4,0-2.2,0v0.7c0.7,0,1.4,0,2.1,0H101.1z"/>
	</g>
	<g>
		<path class="st0" d="M85,30.3c-0.3-1.3-0.7-2.5-0.9-3.6c0.3-0.5,0.7-0.5,1.2-0.3c0.8,2.2,1.3,4.4,2,6.6c-0.3,0.5-0.8,0.4-1.2,0.6
			c-1.1-1.1-2-2.5-3.4-3.7c0.4,1.5,0.9,2.8,1.1,4.2c-0.4,0.4-0.8,0.2-1.2,0.4c-0.7-2.4-1.3-4.7-2-6.9c0.4-0.5,0.9-0.4,1.3-0.5
			C83,28,83.7,29.3,85,30.3z"/>
		<path class="st0" d="M107.1,31.8c-0.4,0.3-0.8,0.2-1.3,0.1c-0.8-0.9-0.7-2-1.3-3c-0.4,0.4-0.3,0.9-0.4,1.3c0,0.5,0.1,0.9-0.1,1.3
			c-0.8,0.2-0.8,0.2-1.4-0.2c0.1-2.3,0.3-4.6,0.5-7c1.2-0.2,2.2-0.1,3.3,0.2c1.6,1.4,1.5,3-0.3,4.4C106.4,30,107.1,30.8,107.1,31.8z
			 M105.8,26.2c-0.4-0.3-0.8-0.6-1.4-0.3c-0.1,0.7-0.2,1.4,0,2.1C105.8,28,106,27.6,105.8,26.2z"/>
		<path class="st0" d="M60.7,38.9c0.2-1.2,0.7-2,2-2.5c1.1-0.2,2.1,0.3,3,1.2c0.9,1,1.6,2,1.7,3.4c0.1,1.7-2.1,3.2-3.7,2.3
			c-1.4-0.9-2.4-2-2.9-3.6C60.8,39.4,60.8,39.1,60.7,38.9z M64.4,42.1c0.8,0.2,1.3,0.1,1.5-0.6c0-1.4-0.5-2.4-2.2-3.6
			c-0.5-0.1-1-0.1-1.4,0.4C62.1,40,63.3,41,64.4,42.1z"/>
		<path class="st0" d="M114.6,32.5c-1.1,0.7-2.1,0.6-3.1,0.2c-1-0.4-1.4-1.4-1.1-2.6c0.2-1.1,0.5-2.2,0.8-3.2c0.1-0.5,0-1.2,0.5-1.6
			c0.4-0.1,0.8,0.1,1.2,0.3c-0.2,2-1,3.8-0.8,5.8c0.7,0.3,1.2,0.4,1.6-0.3c0.4-1.7,0.5-3.5,1.1-5.1c0.5-0.2,0.8-0.2,1.1,0
			c0.2,0.3,0.3,0.5,0.2,0.8C115.5,28.6,115.5,30.7,114.6,32.5z"/>
		<path class="st0" d="M141.3,41.5c-0.5-0.1-0.9-0.2-1.1-0.7c-0.1-0.5,0.4-0.9,0.4-1.4c-0.1-0.5-0.5-0.7-1-0.8
			c-1.9,0.7-2.8,2.1-2.6,3.8c0.5,0.3,0.5,0.3,1,0.4c0.4-0.1,0.6-0.6,1.1-0.6c0.4,0.1,0.7,0.4,0.9,0.7c-1.3,1.7-3.1,1.8-4.3,0.3
			c-0.3-0.4-0.5-0.9-0.4-1.4c0.1-1.6,1.9-3.9,3.4-4.5c1.1-0.4,1.9,0,2.6,0.7c0.8,0.7,0.8,1.6,0.6,2.6
			C141.8,40.9,141.6,41.2,141.3,41.5z"/>
		<path class="st0" d="M121.2,32.4c-0.3-0.5-0.7-0.7-1-1c-0.7-0.5-1.1-1.2-1-2.1c0.2-0.9,0.8-1.6,1.7-1.9c0.7-0.3,1.9,0.2,2.4,0.9
			c0.4,0.6,0.7,1.2,0.2,1.9c-0.4,0.1-0.7-0.1-1-0.2c-0.4-1.3-0.5-1.3-1.6-1.1c-0.4,0.5-0.1,1,0.3,1.4c0.1,0.1,0.2,0.2,0.4,0.3
			c1.1,0.9,1.9,1.9,0.6,3.7c-0.3,0.2-0.6,0.4-0.9,0.6c-1.3,0.3-2.4-0.1-3.1-1.1c-0.4-0.6-0.5-1.4,0.1-2c0.5-0.1,0.8,0.1,1.1,0.4
			c0.2,0.4-0.1,1,0.5,1.3c0.3,0.1,0.7,0.2,1.1-0.1C121.2,33.2,121.2,32.8,121.2,32.4z"/>
		<path class="st0" d="M73.1,33.4c-0.3,0.5-0.6,0.6-1,0.7c-0.5-0.1-0.7-0.6-1.2-0.8c-0.3-0.1-0.6-0.1-0.9,0.1
			c-0.6,1.4-0.2,2.7,1.4,4.1c0.4,0.1,0.9,0.2,1.3-0.1c0.4-0.6,0.1-1.2,0.1-1.8c0.3-0.3,0.7-0.4,1-0.6c0.5,0.6,0.5,0.6,0.7,1.6
			c-0.2,1.2-0.9,2-2.1,2.4c-0.5,0.2-0.9,0.1-1.3-0.1c-0.6-0.3-1.1-0.7-1.5-1.2c-0.7-0.9-1.2-2-1.5-3.1c-0.2-1,0.4-2.2,1.4-2.7
			c0.9-0.5,2-0.3,2.8,0.4C72.6,32.7,72.9,32.9,73.1,33.4z"/>
		<path class="st0" d="M58.8,43c-0.2,0.5-0.5,0.7-0.8,0.9c-0.5,0-0.6-0.5-1-0.6c-0.7,0-0.7,0-1.3,0.5c-0.2,1.4,0.9,2.7,2.9,3.5
			c0.5-0.1,0.9-0.3,1.1-0.9c0-0.5-0.3-0.8-0.6-1.2c0.2-0.4,0.6-0.7,0.9-1c1.9,1.7,1,3.8-0.8,4.4c-0.4,0.1-0.8,0.2-1.2,0
			c-1.7-0.6-3-1.7-3.7-3.4s0.8-3.7,2.6-3.4C57.7,42,58.4,42.4,58.8,43z"/>
		<path class="st0" d="M95.1,31.6c-0.4,0.5-0.8,0.5-1.2,0.4c-0.5-0.4-0.4-1-0.9-1.4c-0.4,0.1-0.8,0.1-1.2,0.2
			c-0.5,0.4-0.1,1.1-0.5,1.6c-0.3,0.3-0.7,0.2-1,0.4c-0.5-0.2-0.5-0.6-0.4-0.9c0.2-1.3,0.4-2.6,0.6-3.8c0.1-0.9,0-1.9,0.5-2.8
			c0.4-0.3,0.8-0.3,1.3-0.1C93.1,27.2,94.1,29.4,95.1,31.6z M91.9,27.6c-0.2,0.5-0.3,1-0.1,1.5c0.2,0.1,0.5,0.2,0.6-0.1
			C92.2,28.6,92.1,28.1,91.9,27.6z"/>
		<path class="st0" d="M146.6,42.7c0.4,0.2,0.7,0.5,0.9,0.9c-1,2.2-2.4,4.3-3.5,6.5c-0.7-0.2-0.7-0.2-1.1-0.7c0-0.6,0.5-0.9,0.6-1.5
			c-0.1-0.6-0.7-0.8-1.2-1.2c-0.5,0.2-0.9,0.6-1.5,0.7c-0.3-0.2-0.6-0.4-0.8-0.9C142.2,45,144.4,43.9,146.6,42.7z M144.5,46.3
			c0.2-0.4,0.6-0.7,0.7-1.2c-0.6,0.2-0.9,0.5-1.3,0.8C144,46.1,144.1,46.2,144.5,46.3z"/>
		<path class="st0" d="M131.1,31.7c-0.1,0.5-0.4,0.7-0.5,1c-0.5,0.2-0.8-0.2-1.2-0.2c-0.9,1.7-1.7,3.5-2.5,5.1
			c-0.6,0.1-0.9-0.1-1.3-0.4c0.6-1.9,1.7-3.5,2.5-5.3c-0.2-0.4-0.7-0.3-0.9-0.6c-0.1-0.4,0.2-0.8,0.6-1.2
			C128.7,30.5,129.9,31,131.1,31.7z"/>
		<path class="st0" d="M131.6,40.3c-0.5-0.1-0.8-0.2-1.2-0.6c1.3-2.1,2.5-4.1,3.8-6.2c0.6,0.2,0.6,0.2,1.1,0.6
			C135.1,34.9,132.6,39.1,131.6,40.3z"/>
		<path class="st0" d="M79.3,35.6C79,36,78.6,36.2,78,36.1c-0.9-2.2-1.8-4.3-2.7-6.5c0.3-0.5,0.8-0.5,1.3-0.7
			C77.5,31.2,78.4,33.4,79.3,35.6z"/>
		<path class="st0" d="M115.5,23.7c0.3,0.4,0.3,0.8,0,1.2c-0.7,0.2-1.4,0.5-2.1,0.4c-0.3-0.2-0.4-0.4-0.5-0.7
			C113.8,24.2,114.6,23.9,115.5,23.7z"/>
	</g>
	<g>
		<path class="st0" d="M114.8,150.9c-1,0-1-0.9-1.3-1.4c-0.4-0.5-0.7-1.1-1.1-1.6c0.2,0.8,0.4,1.6,0.6,2.4c0.1,0.4,0.2,0.8-0.3,1
			c-0.3,0-0.4-0.2-0.4-0.3c-0.4-1.6-0.7-3.1-1.1-4.7c0-0.2,0-0.4,0.1-0.6c0.3-0.2,0.5-0.2,0.9,0c0.7,1,1,2.2,1.9,3.3
			c0.2-1.4,0.3-2.6,0.3-3.8c0.2-0.1,0.3-0.2,0.4-0.2c0.2,0,0.4,0,0.7,0c0.4,1.8,0.8,3.6,1.2,5.3c-0.5,0.3-0.8,0.1-0.9-0.4
			c-0.2-0.9-0.5-1.8-0.6-2.7C115.2,148.5,115,149.7,114.8,150.9z"/>
		<path class="st0" d="M95.8,148.1c-0.1,1.4-0.3,2.7-0.4,3.9c-0.4,0.2-0.6,0-0.6-0.3c0-0.5,0-1,0-1.5c0.1-1.1,0.2-2.2,0.3-3.3
			c0-0.1,0.1-0.3,0.2-0.4c0.7-0.1,0.9,0.3,1.1,0.8c0.4,1,0.8,2.1,1.3,3.1c0.2-1.2,0-2.5,0.5-3.6c0.3-0.1,0.5,0,0.5,0.3
			c0,0.5,0.1,1,0,1.5c-0.2,0.9-0.2,1.9-0.2,2.9c0,0.4-0.1,0.8-0.4,1c-0.5,0.1-0.6-0.2-0.7-0.6C96.9,150.5,96.4,149.4,95.8,148.1z"/>
		<path class="st0" d="M137.5,140.1c0,0.3-0.1,0.5-0.3,0.6c-0.8-0.6-3.1-3.5-3.5-4.5c0.8-0.6,1.5-1.5,2.8-1.1
			c0.8,0.6,1.6,1.3,1.1,2.5c0.5,0.6,1.2,0.8,1.7,1.2c0,0.4-0.2,0.5-0.5,0.5c-0.7-0.4-1.5-0.8-2.4-1.3c0.2-0.5,0.6-1,0.4-1.5
			c-0.2-0.4-0.5-0.7-0.9-0.8c-0.4,0-0.7,0.3-1.1,0.6C135.6,137.8,136.7,138.9,137.5,140.1z"/>
		<path class="st0" d="M85.4,149.9c-0.5,0.1-0.8,0.2-1.1,0.3c-0.9-0.2-1.7-0.5-2-1.6c0.5-1.4,0.7-3.1,1.4-4.6
			c0.4,0.2,0.4,0.2,0.6,0.5c-0.4,1.3-0.8,2.7-1.1,4c0.3,0.7,0.7,0.9,1.5,0.7c0.8-1.3,0.7-3,1.4-4.3c0.3-0.2,0.5,0,0.7,0.2
			C86.4,146.7,86.2,148.4,85.4,149.9z"/>
		<path class="st0" d="M67.2,142.6c0.9-1.7,1.9-3.2,2.9-4.8c0.9,0.5,1.6,0.9,2.3,1.5c-0.1,0.2-0.2,0.3-0.2,0.4
			c-0.7,0-1.2-0.5-1.7-0.8c-0.3,0.4-0.7,0.8-0.8,1.3c0.2,0.7,1.4,0.5,1.3,1.5c-0.8,0.1-1.1-0.7-1.8-0.6c-0.4,0.2-0.6,0.7-0.8,1.1
			c0.3,0.7,1,0.7,1.4,1.2c0.1,0.3-0.1,0.4-0.2,0.7C68.7,143.6,67.9,143.2,67.2,142.6z"/>
		<path class="st0" d="M88.8,151c0.3-1.8,0.6-3.5,0.9-5.3c1.1-0.3,1.9,0.1,2.7,0.3c0.1,0.4,0,0.5-0.2,0.7c-0.5-0.1-1-0.1-1.6-0.2
			c-0.2,0.5-0.4,0.9-0.3,1.5c0.5,0.4,1.4-0.1,1.7,0.8c-0.4,0.3-0.4,0.3-1.9,0.1c-0.3,0.5-0.6,1-0.3,1.6c0.5,0.4,1.4,0,1.7,0.8
			C91.1,151.7,90.5,151.7,88.8,151z"/>
		<path class="st0" d="M130.2,139.3c0.1,0.6,0.8,1.4,0.8,1.4s1-0.7,1.6-0.8c0.1,0,0.3,0.3,0.3,0.4c-0.4,0.6-1.4,1.2-1.4,1.2
			s0.6,0.9,0.8,1.3c0.8,0,1.1-0.7,1.8-0.7c0.4,0.3,0.2,0.6-0.1,0.8c-0.6,0.4-1.2,0.7-1.9,1.1c-1-1.6-2-3.1-2.9-4.8
			c0.7-0.7,1.4-1,2.1-1.4c0.3,0,0.4,0.2,0.5,0.4C131.4,138.8,130.7,139,130.2,139.3z"/>
		<path class="st0" d="M55.5,132.6c-0.3-0.1-0.4-0.2-0.5-0.6c1.6-1.1,2.1-3,3.1-4.6c0.7,0.2,0.5,0.6,0.4,1c-0.2,0.6-0.5,1.1-0.8,1.7
			c0.7,0,1.2-0.3,1.7-0.5c0.4-0.1,0.8-0.3,1.1,0.3c-0.8,0.6-1.8,0.8-2.6,1.1C56.8,131.3,56.2,132.1,55.5,132.6z"/>
		<path class="st0" d="M79.9,145.4c1-1,1.1-1.3,0.5-2.5c-0.6-0.2-1.1-0.7-1.9-0.7c-0.8,1.6-1.5,3.4-2.1,5.1c0.8,0.3,1.4,0.7,2.1,0.8
			c0.4-0.1,0.7-0.3,1-0.6c0.2-0.3,0.4-0.7,0.5-1.3C80.1,146.1,79.8,145.8,79.9,145.4z M78.5,147.2c-0.4,0.1-0.8,0-1.1-0.2
			c0-0.6,0.3-1.1,0.6-1.6c0.5,0.1,0.8,0.3,1,0.5C79.2,146.4,79.1,146.9,78.5,147.2z M79.6,144.6c-0.4,0.2-0.7,0.2-1.1,0.1
			c-0.2-0.6,0.2-0.9,0.3-1.3c0.4-0.2,0.6,0,0.9,0.1C79.9,143.8,79.9,144.2,79.6,144.6z"/>
		<path class="st0" d="M128.5,144.4c-0.3-1.3-0.8-2.4-2-3.1c-1.2-0.3-2.1,0.1-3,0.8c0.7,1.8,1.5,3.5,2.4,5.1c0.7-0.4,1.3-0.7,1.8-1
			C128.4,145.8,128.7,145.1,128.5,144.4z M127.5,145.3c-0.2,0.4-0.6,0.7-1.2,0.8c-0.7-1.1-1.3-2.4-1.8-3.7c0.4-0.3,0.9-0.3,1.2-0.5
			c0.5,0,0.7,0.2,1.1,0.4C127.2,143.3,127.8,144.1,127.5,145.3z"/>
		<path class="st0" d="M65.1,134.2c-1.1,1.4-2.3,2.8-3.5,4.2c0.4,0.5,0.7,0.8,1.2,1.1c1.2,0.7,2.1,0.5,3.1-0.4
			c0.8-0.7,1.1-1.6,1.3-2.6C66.8,135.1,66.4,134.7,65.1,134.2z M66.4,137.1c-0.5,0.8-1,1.7-2.1,2c-0.5-0.2-1.1-0.2-1.4-0.8
			c0.8-1.1,1.6-2.2,2.6-3.1c0.4,0.2,0.7,0.5,0.9,0.8C66.4,136.4,66.4,136.7,66.4,137.1z"/>
		<path class="st0" d="M144.4,134.3c-1.6-0.9-3.2-1.9-4.7-2.8c-0.4,0.1-0.6,0.2-0.6,0.5c1,1.6,1.6,3.4,2.7,5.1c0.9-0.7,0-1.2,0-2
			c0.2-0.3,0.5-0.7,0.9-0.8c0.6,0,0.9,0.5,1.4,0.6C144.3,134.9,144.4,134.7,144.4,134.3z M141.1,134.3c-0.4-0.3-0.5-0.7-0.7-1.2
			c0.6,0.1,0.9,0.5,1.4,0.7C141.7,134.1,141.5,134.3,141.1,134.3z"/>
		<path class="st0" d="M103.6,147c-0.1-0.2-0.2-0.4-0.5-0.4c-0.6,0.6-1.5,3.5-1.7,5.6c0.2,0.2,0.4,0.2,0.6,0c0.4-0.4,0.2-1,0.6-1.5
			c0.4,0,0.8-0.1,1.2,0c0.5,0.4,0.3,1,0.7,1.4c0.2,0.1,0.4,0.2,0.7-0.1C104.8,150.4,104.2,148.7,103.6,147z M102.8,150
			c0.2-0.6,0-1.2,0.5-1.7c0.1,0.5,0.3,1,0.4,1.5C103.4,150.1,103.2,150,102.8,150z"/>
		<path class="st0" d="M120,143.9c-0.2-0.2-0.4-0.4-0.7-0.3c-0.1,0.2-0.3,0.2-0.3,0.2s0.1,4.7,0.6,5.7c1-0.3,0.1-1.2,0.6-1.8
			c0.3-0.3,0.8-0.3,1.2-0.5c0.5,0.3,0.6,1,1.1,1.2c0.3,0,0.4-0.1,0.5-0.4C122.1,146.7,121,145.3,120,143.9z M119.9,147
			c-0.1-0.6,0-1.3-0.2-2.1c0.6,0.6,0.7,1.1,1,1.4C120.7,146.8,120.2,146.9,119.9,147z"/>
	</g>
</g>
</svg>
