<?xml version="1.0" encoding="utf-8"?>
<!-- Generator: Adobe Illustrator 22.1.0, SVG Export Plug-In . SVG Version: 6.00 Build 0)  -->
<svg version="1.1"
	 id="svg41" inkscape:version="0.92.2 (5c3e80d, 2017-08-06)" sodipodi:docname="whatsapp-logo.svg" xmlns:cc="http://creativecommons.org/ns#" xmlns:dc="http://purl.org/dc/elements/1.1/" xmlns:inkscape="http://www.inkscape.org/namespaces/inkscape" xmlns:rdf="http://www.w3.org/1999/02/22-rdf-syntax-ns#" xmlns:sodipodi="http://sodipodi.sourceforge.net/DTD/sodipodi-0.dtd" xmlns:svg="http://www.w3.org/2000/svg"
	 xmlns="http://www.w3.org/2000/svg" xmlns:xlink="http://www.w3.org/1999/xlink" x="0px" y="0px" viewBox="0 0 34 34"
	 style="enable-background:new 0 0 34 34;" xml:space="preserve">
<style type="text/css">
	.st0{fill:#FFFFFF;}
	.st1{fill:#1E4FAD;}
	.st2{fill:#9E160B;}
</style>
<sodipodi:namedview  bordercolor="#666666" borderopacity="1" gridtolerance="10" guidetolerance="10" id="namedview43" inkscape:current-layer="svg41" inkscape:cx="208.8384" inkscape:cy="563.69153" inkscape:pageopacity="0" inkscape:pageshadow="2" inkscape:window-height="837" inkscape:window-maximized="1" inkscape:window-width="1600" inkscape:window-x="-8" inkscape:window-y="-8" inkscape:zoom="0.44240321" objecttolerance="10" pagecolor="#ffffff" showgrid="false">
	</sodipodi:namedview>
<g id="background_1_" transform="translate(286.83199,-245.73885)">
</g>
<circle class="st0" cx="17" cy="17" r="14.2"/>
<circle class="st1" cx="17" cy="17" r="14.2"/>
<circle class="st2" cx="17" cy="17" r="14.2"/>
<g>
	<path class="st0" d="M27.2,15.8l-3.1-2.5V8.2C24.1,8.1,24,8,23.9,8h-3c-0.1,0-0.2,0.1-0.2,0.2v2.2l-3.8-3.1c-0.1-0.1-0.2-0.1-0.3,0
		L6.2,15.9c0,0-0.1,0.1-0.1,0.2c0,0.1,0,0.1,0.1,0.2l1.4,1.6C7.6,18,7.7,18,7.8,18s0.1,0,0.2-0.1l8.8-7.3l8.8,7.3
		c0.1,0.1,0.3,0.1,0.3,0l1.4-1.6c0,0,0.1-0.1,0.1-0.2C27.3,15.9,27.3,15.9,27.2,15.8z"/>
	<path class="st0" d="M16.9,12c-0.1-0.1-0.2-0.1-0.3,0l-7.2,6c-0.1,0-0.1,0.1-0.1,0.2V25c0,0.1,0.1,0.2,0.2,0.2h5.3
		c0.1,0,0.2-0.1,0.2-0.2v-4.8h3.3V25c0,0.1,0.1,0.2,0.2,0.2h5.3c0.1,0,0.2-0.1,0.2-0.2v-6.9c0-0.1,0-0.1-0.1-0.2L16.9,12z"/>
</g>
</svg>
