<?xml version="1.0" encoding="utf-8"?>
<!-- Generator: Adobe Illustrator 22.1.0, SVG Export Plug-In . SVG Version: 6.00 Build 0)  -->
<svg version="1.1"
	 id="svg41" inkscape:version="0.92.2 (5c3e80d, 2017-08-06)" sodipodi:docname="whatsapp-logo.svg" xmlns:cc="http://creativecommons.org/ns#" xmlns:dc="http://purl.org/dc/elements/1.1/" xmlns:inkscape="http://www.inkscape.org/namespaces/inkscape" xmlns:rdf="http://www.w3.org/1999/02/22-rdf-syntax-ns#" xmlns:sodipodi="http://sodipodi.sourceforge.net/DTD/sodipodi-0.dtd" xmlns:svg="http://www.w3.org/2000/svg"
	 xmlns="http://www.w3.org/2000/svg" xmlns:xlink="http://www.w3.org/1999/xlink" x="0px" y="0px" viewBox="0 0 34 34"
	 style="enable-background:new 0 0 34 34;" xml:space="preserve">
<style type="text/css">
	.st0{fill:#1E4FAD;}
	.st1{fill:#FFFFFF;}
</style>
<sodipodi:namedview  bordercolor="#666666" borderopacity="1" gridtolerance="10" guidetolerance="10" id="namedview43" inkscape:current-layer="svg41" inkscape:cx="208.8384" inkscape:cy="563.69153" inkscape:pageopacity="0" inkscape:pageshadow="2" inkscape:window-height="837" inkscape:window-maximized="1" inkscape:window-width="1600" inkscape:window-x="-8" inkscape:window-y="-8" inkscape:zoom="0.44240321" objecttolerance="10" pagecolor="#ffffff" showgrid="false">
	</sodipodi:namedview>
<g id="background_1_" transform="translate(286.83199,-245.73885)">
</g>
<g>
	<circle class="st0" cx="17" cy="17" r="14.2"/>
	<path class="st1" d="M20,7.5c-1.4,0-2.2,0-3.6,0.8s-2.1,2.1-2.1,3.6c0,0.5,0,3.5,0,4.4v0.3h-3.8v4.6h4.1V31c1.1,0.3,1.9,0.3,3,0.3
		c0.5,0,1.4,0,1.9-0.3v-9.8h4.1c0-1.9,0-3,0.3-4.6c-0.3,0-0.5,0-1.1,0c-1.1,0-3.5,0-3.5,0s0-2.2,0-3.3c0-1.4,1.1-1.6,1.9-1.6
		c0.5,0,2.7,0,2.7,0V7.5C23.6,7.5,20.6,7.5,20,7.5z"/>
</g>
</svg>
