<?xml version="1.0" encoding="utf-8"?>
<!-- Generator: Adobe Illustrator 22.1.0, SVG Export Plug-In . SVG Version: 6.00 Build 0)  -->
<svg version="1.1"
	 id="svg41" inkscape:version="0.92.2 (5c3e80d, 2017-08-06)" sodipodi:docname="whatsapp-logo.svg" xmlns:cc="http://creativecommons.org/ns#" xmlns:dc="http://purl.org/dc/elements/1.1/" xmlns:inkscape="http://www.inkscape.org/namespaces/inkscape" xmlns:rdf="http://www.w3.org/1999/02/22-rdf-syntax-ns#" xmlns:sodipodi="http://sodipodi.sourceforge.net/DTD/sodipodi-0.dtd" xmlns:svg="http://www.w3.org/2000/svg"
	 xmlns="http://www.w3.org/2000/svg" xmlns:xlink="http://www.w3.org/1999/xlink" x="0px" y="0px" viewBox="0 0 34 34"
	 style="enable-background:new 0 0 34 34;" xml:space="preserve">
<style type="text/css">
	.st0{fill:url(#SVGID_1_);}
	.st1{fill:url(#SVGID_2_);}
	.st2{fill:#FFFFFF;}
</style>
<sodipodi:namedview  bordercolor="#666666" borderopacity="1" gridtolerance="10" guidetolerance="10" id="namedview43" inkscape:current-layer="svg41" inkscape:cx="208.8384" inkscape:cy="563.69153" inkscape:pageopacity="0" inkscape:pageshadow="2" inkscape:window-height="837" inkscape:window-maximized="1" inkscape:window-width="1600" inkscape:window-x="-8" inkscape:window-y="-8" inkscape:zoom="0.44240321" objecttolerance="10" pagecolor="#ffffff" showgrid="false">
	</sodipodi:namedview>
<g>
	
		<linearGradient id="SVGID_1_" gradientUnits="userSpaceOnUse" x1="16.9941" y1="31.0451" x2="16.9941" y2="2.4442" gradientTransform="matrix(1 0 0 -1 0 33.9055)">
		<stop  offset="0" style="stop-color:#F9F9F9"/>
		<stop  offset="1" style="stop-color:#FFFFFF"/>
	</linearGradient>
	<path class="st0" d="M2.8,31.5l2-7.3C3.5,22,2.9,19.5,2.9,17C2.9,9.2,9.3,2.9,17,2.9c3.8,0,7.3,1.5,10,4.2s4.2,6.2,4.2,10
		c0,7.8-6.4,14.2-14.2,14.2l0,0l0,0c-2.4,0-4.7-0.6-6.8-1.7L2.8,31.5z"/>
	
		<linearGradient id="SVGID_2_" gradientUnits="userSpaceOnUse" x1="17.0348" y1="5.0924" x2="17.0348" y2="28.6413" gradientTransform="matrix(1 0 0 -1 0 33.9055)">
		<stop  offset="0" style="stop-color:#00761C"/>
		<stop  offset="0.1073" style="stop-color:#067D21"/>
		<stop  offset="0.2588" style="stop-color:#158F2E"/>
		<stop  offset="0.3407" style="stop-color:#209C38"/>
		<stop  offset="0.6848" style="stop-color:#209C38"/>
		<stop  offset="0.7599" style="stop-color:#27A23B"/>
		<stop  offset="0.8661" style="stop-color:#39B344"/>
		<stop  offset="0.9904" style="stop-color:#57CF52"/>
		<stop  offset="1" style="stop-color:#5AD153"/>
	</linearGradient>
	<path class="st1" d="M10.6,26.9l0.4,0.2c1.8,1.1,3.9,1.6,6,1.6l0,0c6.5,0,11.8-5.3,11.8-11.8c0-3.1-1.2-6.1-3.5-8.3
		c-2.2-2.2-5.2-3.5-8.3-3.5C10.6,5.3,5.3,10.6,5.3,17c0,2.2,0.6,4.4,1.8,6.3l0.3,0.4l-1.2,4.3L10.6,26.9z"/>
	<g id="g37">
		<path id="path35" inkscape:connector-curvature="0" class="st2" d="M13.5,11.1c-0.3-0.6-0.5-0.6-0.8-0.6c-0.2,0-0.4,0-0.7,0
			c-0.2,0-0.6,0.1-0.9,0.4s-1.2,1.2-1.2,3c0,1.8,1.3,3.4,1.5,3.7c0.2,0.2,2.4,3.9,6,5.3c3,1.2,3.6,0.9,4.2,0.9
			c0.7-0.1,2.1-0.9,2.4-1.7c0.3-0.8,0.3-1.5,0.2-1.7c-0.1-0.2-0.3-0.2-0.7-0.4c-0.4-0.2-2.1-1-2.4-1.1c-0.3-0.1-0.6-0.2-0.8,0.2
			c-0.2,0.4-0.9,1.1-1.1,1.4c-0.2,0.2-0.4,0.3-0.8,0.1c-0.4-0.2-1.5-0.6-2.9-1.8c-1.1-0.9-1.8-2.1-2-2.4c-0.2-0.4,0-0.5,0.2-0.7
			c0.2-0.2,0.4-0.4,0.5-0.6c0.2-0.2,0.2-0.4,0.4-0.6c0.1-0.2,0.1-0.4,0-0.6C14.5,13.6,13.8,11.8,13.5,11.1L13.5,11.1z"/>
	</g>
</g>
<g id="background_1_" transform="translate(286.83199,-245.73885)">
</g>
</svg>
