<?xml version="1.0" encoding="utf-8"?>
<!-- Generator: Adobe Illustrator 22.1.0, SVG Export Plug-In . SVG Version: 6.00 Build 0)  -->
<svg version="1.1" id="Layer_1" xmlns="http://www.w3.org/2000/svg" xmlns:xlink="http://www.w3.org/1999/xlink" x="0px" y="0px"
	 viewBox="0 0 1226 450" style="enable-background:new 0 0 1226 450;" xml:space="preserve">
<style type="text/css">
	.st0{fill:#8D160B;}
</style>
<g>
	<g>
		<g>
			<rect x="453.5" y="397.5" class="st0" width="33.7" height="16.4"/>
			<rect x="499.3" y="397.5" class="st0" width="33.7" height="16.4"/>
			<rect x="545.9" y="397.5" class="st0" width="33.7" height="16.4"/>
			<rect x="592.6" y="397.5" class="st0" width="33.7" height="16.4"/>
			<rect x="639.3" y="397.5" class="st0" width="33.7" height="16.4"/>
			<rect x="685.1" y="397.5" class="st0" width="33.7" height="16.4"/>
			<rect x="731.8" y="397.5" class="st0" width="33.7" height="16.4"/>
		</g>
		<path class="st0" d="M609.9,220.7c-9.9,0-63.1,0-126.2,41.9l0.9,121h44.1v-75.2c0,0-0.9-17.3,16.4-35
			c18.2-18.2,39.3-24.6,64.8-25.5c25.5,0,46.7,7.3,64.8,25.5c17.3,17.3,16.4,35,16.4,35v75.2h44.1l0.9-121
			C674.3,220.7,620.3,220.7,609.9,220.7z"/>
		<path class="st0" d="M718,218.1c-13-17.3-56.6-44.9-107.2-44.9c-50.6,0-90.8,22.9-108,44.9c-13.8,16.4-15.6,32.8-15.6,32.8
			s21.2-14.7,57.5-27.7c30.3-10.8,54.9-10.8,66.1-10.8c11.2,0,35.9,0.9,66.1,10.8c36.7,13,57.5,27.7,57.5,27.7
			S732.6,238.4,718,218.1z"/>
	</g>
	<path class="st0" d="M579.7,381.9c0,0-5.6-7.3-6.5-29.4s12.1-37.6,16.4-43.2c4.8-6.5,13-18.2,14.7-22.9c0,0,6.5,6.5,9.9,9.9
		c3.5,3.5,17.3,17.3,22,30.3c4.8,13,4.8,23.8,2.6,31.1c0,0,3.5-0.9,5.6-4.8c1.7-3.5,1.7-4.8,1.7-4.8s3.5,3.5,5.6,9.1
		c1.7,5.6,4.8,13,0.9,23.8h-8.2c0,0,4.8-6.5,0.9-9.9c0,0-2.6,7.3-10.8,10.8H619c0,0,3.5-7.3,3.5-15.6c0-8.2-0.9-14.7-5.6-23.8
		s-9.9-15.6-9.9-15.6s-13,13-15.6,25.5c-2.6,13.8,0,20.3,5.6,28.5h-17.3V381.9z"/>
	<g>
		<path class="st0" d="M79.6,392.3c0,0-13,8.2-28.5,0c-15.6-9.1-21.2-19-23.8-43.2c-2.6-23.8,8.2-56.6,13.8-67c0,0,1.7,7.3,9.1,15.6
			c7.3,7.3,20.3,19,31.1,27.7c10.8,8.2,19,16.4,21.2,26.4c2.2,9.9,0,23.8-9.9,32.8c0,0-18.2-12.1-28.5-27.7
			c-10.4-15.6-15.6-33.7-18.2-46.7c0,0-1.7,12.1,9.9,41.9C67.1,382.8,79.6,392.3,79.6,392.3z"/>
		<path class="st0" d="M149.2,321.4c-3.5-13-8.2-18.2-8.2-18.2s-0.9,5.6-3.5,9.9c-2.6,4.8-15.6,15.6-25.5,22.9
			c-3.5,2.6-6.5,5.6-8.2,8.2c0.9,1.7,1.7,4.8,1.7,6.5c1.7,9.1,0,21.2-6.5,30.3c1.7,2.6,3.5,3.5,3.5,3.5c9.1-5.6,14.7-13,14.7-13
			c14.7-17.3,22-41.1,22-41.1c-0.9,12.1-4.8,23.8-10.8,37.6c-7.3,13-17.3,22-17.3,22c18.2,2.6,30.3-3.5,37.6-16.4
			C156.5,359.9,153.9,334.4,149.2,321.4z"/>
	</g>
	<g>
		<path class="st0" d="M1150.1,392.3c0,0,13,8.2,28.5,0c15.6-9.1,21.2-19,23.8-43.2c2.6-23.8-8.2-56.6-13.8-67c0,0-1.7,7.3-9.1,15.6
			c-7.3,8.2-20.3,19-31.1,27.7c-10.8,8.2-19,16.4-21.2,26.4c-1.7,9.9,0,23.8,9.9,32.8c0,0,18.2-12.1,28.5-27.7
			c10.4-15.6,15.6-33.7,18.2-46.7c0,0,1.7,12.1-9.9,41.9C1162.2,381.9,1150.1,392.3,1150.1,392.3z"/>
		<path class="st0" d="M1080.6,321.4c3.5-13,8.2-18.2,8.2-18.2s0.9,5.6,3.5,9.9c2.6,4.8,15.6,15.6,25.5,22.9
			c3.5,2.6,6.5,5.6,8.2,8.2c-0.9,1.7-1.7,4.8-1.7,6.5c-1.7,9.1,0,21.2,6.5,30.3c-1.7,2.6-3.5,3.5-3.5,3.5c-9.1-5.6-14.7-13-14.7-13
			c-14.7-17.3-22-41.1-22-41.1c0.9,12.1,4.8,23.8,10.8,37.6c6.5,13.8,16.4,22.9,16.4,22.9c-18.2,2.6-30.3-3.5-37.6-16.4
			C1074.1,359.9,1077.1,334.4,1080.6,321.4z"/>
	</g>
	<g>
		<path class="st0" d="M262.9,289.4c-1.7-0.9-4.8-0.9-6.5,1.7c-0.9,1.7-0.9,4.8,1.7,6.5l16.4,9.1c1.7-2.6,2.6-5.6,4.8-7.3
			L262.9,289.4z"/>
		<path class="st0" d="M399.4,151.1c-0.9-1.7-3.5-2.6-6.5-1.7c-1.7,0.9-2.6,3.5-1.7,6.5l9.9,16.4c2.6-1.7,4.8-3.5,7.3-4.8
			L399.4,151.1z"/>
		<path class="st0" d="M654,116.6l1.7-19c0-2.6-1.7-4.8-3.5-4.8c-2.6,0-4.8,1.7-4.8,3.5l-1.7,19C648.4,115.7,651.4,116.6,654,116.6z
			"/>
		<path class="st0" d="M608.2,113.5c0.9,0,1.7,0,2.6,0V31.4c0-2.6-1.7-4.8-4.8-4.8c-2.6,0-4.8,1.7-4.8,4.8V114
			C603.4,113.5,605.6,113.5,608.2,113.5z"/>
		<path class="st0" d="M323.4,210.8c-1.7-1.7-4.8-1.7-6.5,0s-1.7,4.8,0,6.5l13.8,13.8c1.7-1.7,3.5-4.8,6.5-6.5L323.4,210.8z"/>
		<path class="st0" d="M460.8,142.9c2.6-0.9,5.6-1.7,8.2-3.5l-7.3-18.2c-0.9-1.7-3.5-3.5-5.6-2.6c-1.7,0.9-3.5,3.5-2.6,5.6
			L460.8,142.9z"/>
		<path class="st0" d="M507.5,127.4c2.6-0.9,5.6-1.7,8.2-1.7l-20.3-79.5c-0.9-2.6-2.6-3.5-5.6-3.5c-2.6,0.9-3.5,2.6-3.5,5.6
			L507.5,127.4z"/>
		<path class="st0" d="M561.5,116.6l-2.6-19c0-2.6-2.6-4.8-4.8-3.5c-2.6,0-4.8,2.6-3.5,4.8l2.6,20.3
			C555,117.4,557.6,117.4,561.5,116.6z"/>
		<path class="st0" d="M902.1,225.5L890,236.3c1.7,1.7,3.5,4.8,5.6,6.5l12.1-10.8c1.7-1.7,1.7-4.8,0-6.5
			C906.8,223.7,903.8,223.7,902.1,225.5z"/>
		<path class="st0" d="M957,303.3l-13.8,7.3c1.7,2.6,2.6,5.6,3.5,8.2l13.8-7.3c1.7-0.9,2.6-3.5,1.7-6.5
			C961.7,303.3,960,302.4,957,303.3z"/>
		<path class="st0" d="M700.7,124.8l19-78.7c0.9-2.6-0.9-4.8-3.5-5.6c-2.6-0.9-4.8,0.9-5.6,3.5l-19,79.5
			C695,123.9,698.1,124.8,700.7,124.8z"/>
		<path class="st0" d="M924.1,278.6l64-44.9c1.7-1.7,2.6-4.8,0.9-6.5s-4.8-2.6-6.5-0.9l-64,44.9C920.2,273,922.4,275.6,924.1,278.6z
			"/>
		<path class="st0" d="M787.5,157.6l37.6-71.3c0.9-1.7,0-4.8-1.7-6.5c-1.7-0.9-4.8,0-6.5,1.7l-37.6,71.3
			C782.4,155,784.9,156.8,787.5,157.6z"/>
		<path class="st0" d="M743.9,138.6l6.5-17.3c0.9-2.6,0-4.8-2.6-5.6c-2.6-0.9-4.8,0-5.6,2.6l-6.5,17.3
			C738.3,136.4,740.9,137.3,743.9,138.6z"/>
		<path class="st0" d="M863.6,209.9l52.3-59.6c1.7-1.7,1.7-4.8,0-6.5s-4.8-1.7-6.5,0l-53.2,59.6C859.3,206,861,208.2,863.6,209.9z"
			/>
		<path class="st0" d="M826.9,182.3l9.9-14.7c1.7-1.7,0.9-4.8-0.9-6.5c-1.7-1.7-4.8-0.9-6.5,0.9l-9.9,14.7
			C822.5,178.8,825.1,180.5,826.9,182.3z"/>
		<path class="st0" d="M1043,328.8c-0.9-2.6-3.5-3.5-5.6-2.6l-73.5,27.7c0.9,2.6,1.7,5.6,3.5,8.2l73.5-27.7
			C1042.1,333.5,1044.3,330.9,1043,328.8z"/>
		<path class="st0" d="M365.3,200c2.6-1.7,4.8-3.5,7.3-5.6l-51-64c-1.7-1.7-4.8-1.7-6.5-0.9c-1.7,1.7-1.7,4.8-0.9,6.5L365.3,200z"/>
		<path class="st0" d="M300.5,266.5c1.7-2.6,3.5-4.8,5.6-7.3l-64.8-49.3c-1.7-1.7-4.8-0.9-6.5,0.9c-1.7,1.7-0.9,4.8,0.9,6.5
			L300.5,266.5z"/>
		<path class="st0" d="M178.6,316.2l75.2,32c0.9-2.6,1.7-5.6,3.5-8.2L182,308c-1.7-0.9-4.8,0-5.6,2.6
			C176,313.2,176.8,315.4,178.6,316.2z"/>
	</g>
</g>
</svg>
