<?xml version="1.0" encoding="utf-8"?>
<!-- Generator: Adobe Illustrator 22.1.0, SVG Export Plug-In . SVG Version: 6.00 Build 0)  -->
<svg version="1.1"
	 id="svg41" inkscape:version="0.92.2 (5c3e80d, 2017-08-06)" sodipodi:docname="whatsapp-logo.svg" xmlns:cc="http://creativecommons.org/ns#" xmlns:dc="http://purl.org/dc/elements/1.1/" xmlns:inkscape="http://www.inkscape.org/namespaces/inkscape" xmlns:rdf="http://www.w3.org/1999/02/22-rdf-syntax-ns#" xmlns:sodipodi="http://sodipodi.sourceforge.net/DTD/sodipodi-0.dtd" xmlns:svg="http://www.w3.org/2000/svg"
	 xmlns="http://www.w3.org/2000/svg" xmlns:xlink="http://www.w3.org/1999/xlink" x="0px" y="0px" viewBox="0 0 34 34"
	 style="enable-background:new 0 0 34 34;" xml:space="preserve">
<style type="text/css">
	.st0{fill:url(#SVGID_1_);}
	.st1{fill:#FFFFFF;}
</style>
<sodipodi:namedview  bordercolor="#666666" borderopacity="1" gridtolerance="10" guidetolerance="10" id="namedview43" inkscape:current-layer="svg41" inkscape:cx="208.8384" inkscape:cy="563.69153" inkscape:pageopacity="0" inkscape:pageshadow="2" inkscape:window-height="837" inkscape:window-maximized="1" inkscape:window-width="1600" inkscape:window-x="-8" inkscape:window-y="-8" inkscape:zoom="0.44240321" objecttolerance="10" pagecolor="#ffffff" showgrid="false">
	</sodipodi:namedview>
<g id="background_1_" transform="translate(286.83199,-245.73885)">
</g>
<g>
	<g>
		
			<radialGradient id="SVGID_1_" cx="-40.4982" cy="770.6773" r="8.1658" gradientTransform="matrix(3.3228 0 0 3.3228 140.8937 -2534.4268)" gradientUnits="userSpaceOnUse">
			<stop  offset="0" style="stop-color:#FFDA32"/>
			<stop  offset="0.4336" style="stop-color:#F62B37"/>
			<stop  offset="0.65" style="stop-color:#C82091"/>
			<stop  offset="1" style="stop-color:#3542E0"/>
		</radialGradient>
		<circle class="st0" cx="17" cy="17" r="14.2"/>
		<g>
			<path class="st1" d="M26.3,12.4c0-1.4-0.5-2.2-1.6-3.3c-1.1-1.1-1.9-1.4-3.3-1.4c-2.2,0-7.6-0.3-9.3,0C10.2,8.6,8.9,9.4,8,11.9
				c-0.3,1.6-0.3,8.7,0,10.4c0.3,2.2,1.6,3.5,3.5,4.1c1.4,0.3,8.4,0.3,10.1,0c2.2-0.3,3.5-1.6,4.4-3.5C26.6,21.1,26.6,14,26.3,12.4z
				 M24.7,21.9c-0.3,1.6-1.4,2.7-3,2.7c-1.6,0.3-8.2,0.3-9.5,0c-1.4-0.3-2.5-1.4-2.5-2.7c-0.3-1.4-0.3-7.6,0-9.5
				c0.5-1.6,1.4-2.7,3-3c1.6,0,7.6,0,9.3,0.3c1.4,0,2.7,1.4,2.7,3C24.9,14,24.9,20.3,24.7,21.9z M17,12.4c-2.7,0-4.9,2.2-4.9,4.9
				s2.2,4.9,4.9,4.9c2.7-0.3,4.9-2.7,4.9-5.2S19.8,12.4,17,12.4z M17,20.3c-1.6,0-3-1.6-3-3.3s1.4-3,3-3s3,1.4,3,3
				S18.7,20.3,17,20.3z M23.3,12.1c0,0.5-0.5,1.4-1.4,1.4c-0.5,0-0.8-0.8-0.8-1.4c0-0.5,0.5-1.1,1.1-1.1
				C22.8,11,23.3,11.3,23.3,12.1z"/>
			<path class="st1" d="M26.3,12.4c0-1.4-0.5-2.2-1.6-3.3c-1.1-1.1-1.9-1.4-3.3-1.4c-2.2,0-7.6-0.3-9.3,0C10.2,8.6,8.9,9.4,8,11.9
				c-0.3,1.6-0.3,8.7,0,10.4c0.3,2.2,1.6,3.5,3.5,4.1c1.4,0.3,8.4,0.3,10.1,0c2.2-0.3,3.5-1.6,4.4-3.5C26.6,21.1,26.6,14,26.3,12.4z
				 M24.7,21.9c-0.3,1.6-1.4,2.7-3,2.7c-1.6,0.3-8.2,0.3-9.5,0c-1.4-0.3-2.5-1.4-2.5-2.7c-0.3-1.4-0.3-7.6,0-9.5
				c0.5-1.6,1.4-2.7,3-3c1.6,0,7.6,0,9.3,0.3c1.4,0,2.7,1.4,2.7,3C24.9,14,24.9,20.3,24.7,21.9z M17,12.4c-2.7,0-4.9,2.2-4.9,4.9
				s2.2,4.9,4.9,4.9c2.7-0.3,4.9-2.7,4.9-5.2S19.8,12.4,17,12.4z M17,20.3c-1.6,0-3-1.6-3-3.3s1.4-3,3-3s3,1.4,3,3
				S18.7,20.3,17,20.3z M23.3,12.1c0,0.5-0.5,1.4-1.4,1.4c-0.5,0-0.8-0.8-0.8-1.4c0-0.5,0.5-1.1,1.1-1.1
				C22.8,11,23.3,11.3,23.3,12.1z"/>
		</g>
	</g>
</g>
</svg>
