<?xml version="1.0" encoding="utf-8"?>
<!-- Generator: Adobe Illustrator 22.1.0, SVG Export Plug-In . SVG Version: 6.00 Build 0)  -->
<svg version="1.1"
	 id="svg41" inkscape:version="0.92.2 (5c3e80d, 2017-08-06)" sodipodi:docname="whatsapp-logo.svg" xmlns:cc="http://creativecommons.org/ns#" xmlns:dc="http://purl.org/dc/elements/1.1/" xmlns:inkscape="http://www.inkscape.org/namespaces/inkscape" xmlns:rdf="http://www.w3.org/1999/02/22-rdf-syntax-ns#" xmlns:sodipodi="http://sodipodi.sourceforge.net/DTD/sodipodi-0.dtd" xmlns:svg="http://www.w3.org/2000/svg"
	 xmlns="http://www.w3.org/2000/svg" xmlns:xlink="http://www.w3.org/1999/xlink" x="0px" y="0px" viewBox="0 0 34 34"
	 style="enable-background:new 0 0 34 34;" xml:space="preserve">
<style type="text/css">
	.st0{fill:#FFFFFF;}
	.st1{fill:#07964C;}
	.st2{fill:#FFE22C;}
	.st3{fill:#C5C3C4;}
	.st4{fill:#6185D5;}
	.st5{fill:#F6F6F6;}
	.st6{fill:#DD3A31;}
	.st7{fill:#7D2F22;}
</style>
<circle class="st0" cx="17" cy="17" r="14.2"/>
<path class="st1" d="M26.4,6.4c-2.5-2.2-5.8-3.6-9.4-3.6C9.2,2.8,2.8,9.2,2.8,17c0,3.6,1.4,6.9,3.6,9.4L26.4,6.4z"/>
<sodipodi:namedview  bordercolor="#666666" borderopacity="1" gridtolerance="10" guidetolerance="10" id="namedview43" inkscape:current-layer="svg41" inkscape:cx="208.8384" inkscape:cy="563.69153" inkscape:pageopacity="0" inkscape:pageshadow="2" inkscape:window-height="837" inkscape:window-maximized="1" inkscape:window-width="1600" inkscape:window-x="-8" inkscape:window-y="-8" inkscape:zoom="0.44240321" objecttolerance="10" pagecolor="#ffffff" showgrid="false">
	</sodipodi:namedview>
<g id="background_1_" transform="translate(286.83199,-245.73885)">
</g>
<path class="st2" d="M26.4,6.4l-20,20C7.1,27.2,8,28,8.9,28.6L28.6,8.9C28,8,27.2,7.1,26.4,6.4z"/>
<path class="st3" d="M27.8,26.2c2.1-2.5,3.4-5.7,3.4-9.2c0-3-0.9-5.8-2.5-8.1L19.6,18L27.8,26.2z"/>
<path class="st4" d="M17.2,20.4l-8.3,8.3c2.3,1.6,5.1,2.5,8.1,2.5c3.1,0,6-1,8.3-2.7L17.2,20.4z"/>
<path class="st5" d="M14.9,11.2h-1.4h-2.2v1.3h2.1c-0.3,0.9-1.1,1.5-2.1,1.5C10.1,14,9,13,9,11.7s1-2.3,2.3-2.3
	c0.6,0,1.1,0.2,1.5,0.5l1-1c-0.7-0.6-1.5-1-2.5-1c-2,0-3.6,1.6-3.6,3.6s1.6,3.6,3.6,3.6c1.8,0,3.2-1.3,3.6-2.9
	c0-0.2,0.1-0.5,0.1-0.7C15,11.6,15,11.4,14.9,11.2z"/>
<path class="st6" d="M24.6,23c-0.1,0-0.3-0.1-0.3-0.3c-0.5-3.7-1.5-5.1-2.3-6.5c-1.4-2.3-3.7-4.8-3.7-7.3c0-3.2,2.6-6,6.3-6l0,0
	c3.7,0,6.3,2.8,6.3,6c0,2.5-2.3,5-3.7,7.3c-0.8,1.4-1.8,2.8-2.3,6.5C24.9,22.9,24.7,23,24.6,23z"/>
<circle class="st7" cx="24.7" cy="8.9" r="2.2"/>
</svg>
